<svg xmlns="http://www.w3.org/2000/svg" xmlns:xlink="http://www.w3.org/1999/xlink" width="500" zoomAndPan="magnify" viewBox="0 0 375 374.999991" height="500" preserveAspectRatio="xMidYMid meet" version="1.0"><defs><filter x="0%" y="0%" width="100%" height="100%" id="c558cb3286"><feColorMatrix values="0 0 0 0 1 0 0 0 0 1 0 0 0 0 1 0 0 0 1 0" color-interpolation-filters="sRGB"/></filter><mask id="54bda07090"><g filter="url(#c558cb3286)"><rect x="-37.5" width="450" fill="#000000" y="-37.499999" height="449.999989" fill-opacity="0.23"/></g></mask><clipPath id="9735af9503"><path d="M 0.519531 1 L 36 1 L 36 11 L 0.519531 11 Z M 0.519531 1 " clip-rule="nonzero"/></clipPath><clipPath id="d06e905a70"><path d="M 60 25 L 117.878906 25 L 117.878906 100.640625 L 60 100.640625 Z M 60 25 " clip-rule="nonzero"/></clipPath><clipPath id="33843d9f26"><rect x="0" width="118" y="0" height="101"/></clipPath><mask id="8cb19b9a74"><g filter="url(#c558cb3286)"><rect x="-37.5" width="450" fill="#000000" y="-37.499999" height="449.999989" fill-opacity="0.32"/></g></mask><clipPath id="e5a809f5d8"><path d="M 0.558594 209 L 12 209 L 12 221 L 0.558594 221 Z M 0.558594 209 " clip-rule="nonzero"/></clipPath><clipPath id="a2e4786661"><path d="M 127 227 L 134 227 L 134 232.601562 L 127 232.601562 Z M 127 227 " clip-rule="nonzero"/></clipPath><clipPath id="66eea73965"><rect x="0" width="232" y="0" height="233"/></clipPath><mask id="7ab36009bb"><g filter="url(#c558cb3286)"><rect x="-37.5" width="450" fill="#000000" y="-37.499999" height="449.999989" fill-opacity="0.77"/></g></mask><clipPath id="19a664c65e"><path d="M 0.238281 0.441406 L 47.761719 0.441406 L 47.761719 56.839844 L 0.238281 56.839844 Z M 0.238281 0.441406 " clip-rule="nonzero"/></clipPath><clipPath id="ddd916ea84"><rect x="0" width="48" y="0" height="57"/></clipPath></defs><rect x="-37.5" width="450" fill="#ffffff" y="-37.499999" height="449.999989" fill-opacity="1"/><rect x="-37.5" width="450" fill="#080a1a" y="-37.499999" height="449.999989" fill-opacity="1"/><path fill="#000000" d="M 298.121094 178.855469 L 113.175781 72.074219 L 113.175781 285.636719 Z M 298.121094 178.855469 " fill-opacity="1" fill-rule="nonzero"/><path fill="#d11d4d" d="M 240.890625 191.976562 L 211.539062 208.921875 L 185.820312 223.773438 L 153.152344 242.632812 C 149.101562 244.972656 144.644531 245.199219 140.757812 243.875 C 139.980469 243.617188 139.230469 243.292969 138.511719 242.910156 C 134.1875 240.628906 130.960938 236.304688 130.484375 230.898438 C 130.441406 230.445312 130.425781 229.980469 130.425781 229.507812 L 130.425781 128.199219 C 130.425781 117.949219 140.175781 111.078125 149.398438 113.515625 C 150.671875 113.855469 151.933594 114.367188 153.15625 115.078125 C 153.15625 115.078125 153.164062 115.082031 153.171875 115.085938 L 155.363281 116.351562 L 160.496094 119.3125 L 240.894531 165.730469 C 251 171.5625 251 186.140625 240.890625 191.976562 Z M 240.890625 191.976562 " fill-opacity="1" fill-rule="nonzero"/><path fill="#ffae00" d="M 240.890625 191.976562 C 240.890625 191.976562 240.886719 191.976562 240.878906 191.980469 L 211.539062 208.925781 L 185.820312 223.773438 L 153.152344 242.632812 C 149.101562 244.976562 144.644531 245.199219 140.757812 243.878906 C 137.519531 241.433594 135.222656 237.691406 134.824219 233.203125 C 134.789062 232.746094 134.765625 232.28125 134.765625 231.8125 L 134.765625 130.496094 C 134.765625 120.246094 144.515625 113.375 153.738281 115.816406 C 154.277344 115.960938 154.824219 116.136719 155.359375 116.351562 L 160.492188 119.3125 L 240.890625 165.730469 C 251 171.5625 251 186.148438 240.890625 191.976562 Z M 240.890625 191.976562 " fill-opacity="1" fill-rule="nonzero"/><path fill="#000000" d="M 301.25 168.203125 L 241.53125 55.875 C 231.074219 36.199219 210.742188 23.980469 188.476562 23.980469 C 184.988281 23.980469 181.46875 24.289062 178.019531 24.894531 L 54.0625 46.761719 L 102.386719 74.691406 L 34.964844 182.578125 C 28.195312 193.414062 25.085938 205.878906 25.980469 218.621094 C 26.867188 231.367188 31.683594 243.277344 39.898438 253.0625 L 120.808594 349.484375 L 120.835938 293.671875 L 247.972656 298.113281 C 248.671875 298.136719 249.382812 298.152344 250.082031 298.152344 C 262.460938 298.152344 274.363281 294.398438 284.515625 287.304688 C 294.6875 280.195312 302.308594 270.265625 306.550781 258.601562 L 349.597656 140.324219 Z M 120.84375 272.246094 L 120.929688 85.40625 L 282.695312 178.902344 Z M 120.84375 272.246094 " fill-opacity="1" fill-rule="nonzero"/><path fill="#ffae00" d="M 234.675781 59.519531 L 298.121094 178.855469 L 298.109375 178.851562 L 76.394531 50.707031 L 84.789062 49.226562 L 179.363281 32.546875 C 201.699219 28.605469 224.03125 39.492188 234.675781 59.519531 Z M 234.675781 59.519531 " fill-opacity="1" fill-rule="nonzero"/><path fill="#d11d4d" d="M 335.019531 157.683594 L 330.824219 169.214844 L 299.257812 255.941406 C 291.507812 277.253906 270.90625 291.148438 248.246094 290.355469 L 113.175781 285.636719 L 113.203125 285.617188 Z M 335.019531 157.683594 " fill-opacity="1" fill-rule="nonzero"/><path fill="#00ffc7" d="M 113.171875 72.078125 L 113.097656 243.820312 L 113.058594 328.171875 L 106.15625 319.953125 L 86.523438 296.550781 L 52.820312 256.390625 L 45.839844 248.074219 C 31.265625 230.703125 29.53125 205.921875 41.550781 186.6875 L 62.492188 153.179688 Z M 113.171875 72.078125 " fill-opacity="1" fill-rule="nonzero"/><path fill="#000000" d="M 113.171875 72.078125 L 86.523438 296.554688 L 52.820312 256.394531 L 45.839844 248.078125 C 31.265625 230.707031 29.53125 205.925781 41.550781 186.691406 Z M 113.171875 72.078125 " fill-opacity="0.23" fill-rule="nonzero"/><path fill="#000000" d="M 113.171875 72.078125 L 52.820312 256.390625 L 45.839844 248.074219 C 31.265625 230.703125 29.53125 205.921875 41.550781 186.6875 Z M 113.171875 72.078125 " fill-opacity="0.23" fill-rule="nonzero"/><path fill="#000000" d="M 298.121094 178.855469 L 117.046875 43.535156 L 168.675781 34.425781 L 179.367188 32.539062 C 201.699219 28.601562 224.03125 39.488281 234.675781 59.515625 Z M 298.121094 178.855469 " fill-opacity="0.23" fill-rule="nonzero"/><path fill="#000000" d="M 298.121094 178.855469 L 168.675781 34.429688 L 179.367188 32.542969 C 201.699219 28.605469 224.03125 39.492188 234.675781 59.519531 Z M 298.121094 178.855469 " fill-opacity="0.23" fill-rule="nonzero"/><path fill="#000000" d="M 113.171875 285.636719 L 320.894531 196.476562 L 302.96875 245.746094 L 299.253906 255.953125 C 291.5 277.261719 270.902344 291.152344 248.238281 290.359375 Z M 113.171875 285.636719 " fill-opacity="0.23" fill-rule="nonzero"/><path fill="#000000" d="M 113.171875 285.636719 L 302.96875 245.742188 L 299.253906 255.949219 C 291.5 277.253906 270.902344 291.148438 248.238281 290.355469 Z M 113.171875 285.636719 " fill-opacity="0.23" fill-rule="nonzero"/><path fill="#ffffff" d="M 298.121094 178.851562 L 298.109375 178.847656 L 76.394531 50.707031 L 84.792969 49.222656 Z M 298.121094 178.851562 " fill-opacity="0.46" fill-rule="nonzero"/><path fill="#ffffff" d="M 113.171875 72.078125 L 113.058594 328.171875 L 106.15625 319.953125 Z M 113.171875 72.078125 " fill-opacity="0.46" fill-rule="nonzero"/><path fill="#ffffff" d="M 335.019531 157.683594 L 330.824219 169.214844 L 113.175781 285.636719 L 113.203125 285.617188 Z M 335.019531 157.683594 " fill-opacity="0.46" fill-rule="nonzero"/><g mask="url(#54bda07090)"><g transform="matrix(1, 0, 0, 1, 131, 112)"><g clip-path="url(#33843d9f26)"><g clip-path="url(#9735af9503)"><path fill="#000000" d="M 16.742188 8.011719 C 23.292969 8.011719 29.609375 8.996094 35.5625 10.816406 L 29.496094 7.3125 L 22.171875 3.085938 C 22.160156 3.082031 22.15625 3.078125 22.15625 3.078125 C 20.929688 2.367188 19.671875 1.855469 18.398438 1.515625 C 11.191406 -0.390625 3.660156 3.394531 0.714844 10.027344 C 5.835938 8.714844 11.207031 8.011719 16.742188 8.011719 Z M 16.742188 8.011719 " fill-opacity="1" fill-rule="nonzero"/></g><g clip-path="url(#d06e905a70)"><path fill="#000000" d="M 109.890625 53.730469 L 60.515625 25.222656 C 73.136719 36.964844 81.035156 53.714844 81.035156 72.3125 C 81.035156 82.363281 78.730469 91.867188 74.621094 100.339844 L 80.535156 96.925781 L 109.886719 79.980469 C 120 74.140625 120 59.5625 109.890625 53.730469 Z M 109.890625 53.730469 " fill-opacity="1" fill-rule="nonzero"/></g></g></g></g><path fill="#000000" d="M 130.421875 204.972656 L 130.421875 229.507812 C 130.421875 229.980469 130.441406 230.445312 130.480469 230.898438 C 131.4375 241.738281 143.457031 248.226562 153.148438 242.632812 L 169.90625 232.957031 C 152.828125 230.238281 138.382812 219.625 130.421875 204.972656 Z M 130.421875 204.972656 " fill-opacity="0.23" fill-rule="nonzero"/><path fill="#000000" d="M 113.097656 243.820312 L 113.058594 328.171875 L 106.15625 319.953125 L 86.523438 296.550781 L 52.820312 256.390625 L 45.839844 248.074219 C 31.265625 230.703125 29.53125 205.921875 41.550781 186.6875 L 62.492188 153.179688 C 55.355469 175.636719 53.804688 203.128906 71.519531 229.113281 C 86.097656 250.496094 100.597656 251.324219 113.097656 243.820312 Z M 113.097656 243.820312 " fill-opacity="0.23" fill-rule="nonzero"/><path fill="#000000" d="M 149.425781 92.914062 L 76.394531 50.707031 L 86.960938 48.839844 L 117.046875 43.535156 L 168.675781 34.425781 L 179.367188 32.539062 C 201.699219 28.601562 224.03125 39.488281 234.675781 59.515625 L 253.222656 94.40625 C 237.339844 76.996094 214.308594 61.90625 182.953125 64.257812 C 157.140625 66.191406 149.179688 78.335938 149.425781 92.914062 Z M 149.425781 92.914062 " fill-opacity="0.23" fill-rule="nonzero"/><path fill="#000000" d="M 261.949219 199.828125 L 335.019531 157.683594 L 331.351562 167.769531 L 320.902344 196.472656 L 302.972656 245.742188 L 299.257812 255.949219 C 291.503906 277.253906 270.90625 291.148438 248.242188 290.355469 L 208.753906 288.972656 C 231.769531 283.925781 256.355469 271.523438 270 243.1875 C 281.230469 219.867188 274.695312 206.902344 261.949219 199.828125 Z M 261.949219 199.828125 " fill-opacity="0.23" fill-rule="nonzero"/><path fill="#ffffff" d="M 240.890625 191.976562 L 211.539062 208.921875 L 185.820312 223.773438 L 153.152344 242.632812 C 148.292969 245.4375 142.851562 245.207031 138.511719 242.910156 Z M 240.890625 191.976562 " fill-opacity="0.32" fill-rule="nonzero"/><path fill="#ffffff" d="M 213.089844 176.378906 L 209.625 178.382812 L 192.464844 188.289062 L 174.390625 198.726562 L 151.429688 211.976562 C 148.585938 213.621094 145.453125 213.78125 142.714844 212.855469 C 140.441406 211.136719 138.832031 208.503906 138.550781 205.351562 C 138.523438 205.03125 138.511719 204.707031 138.511719 204.375 L 138.511719 133.171875 C 138.511719 125.96875 145.359375 121.140625 151.84375 122.855469 C 152.222656 122.957031 152.601562 123.078125 152.980469 123.230469 L 156.589844 125.3125 L 213.089844 157.933594 C 220.195312 162.03125 220.195312 172.277344 213.089844 176.378906 Z M 213.089844 176.378906 " fill-opacity="0.18" fill-rule="nonzero"/><path fill="#ffffff" d="M 213.09375 173.488281 L 192.464844 185.402344 L 174.390625 195.835938 L 151.433594 209.089844 C 148.589844 210.734375 145.453125 210.894531 142.722656 209.96875 C 140.445312 208.25 138.832031 205.621094 138.550781 202.464844 C 138.523438 202.144531 138.511719 201.820312 138.511719 201.484375 L 138.511719 130.28125 C 138.511719 123.078125 145.363281 118.246094 151.84375 119.960938 C 152.226562 120.0625 152.605469 120.1875 152.980469 120.335938 L 156.589844 122.421875 L 213.089844 155.042969 C 220.195312 159.144531 220.195312 169.390625 213.09375 173.488281 Z M 213.09375 173.488281 " fill-opacity="0.32" fill-rule="nonzero"/><g mask="url(#8cb19b9a74)"><g transform="matrix(1, 0, 0, 1, 64, 41)"><g clip-path="url(#66eea73965)"><path fill="#ffffff" d="M 39.683594 177.082031 L 39.683594 177.078125 C 39.6875 177.082031 39.6875 177.082031 39.6875 177.085938 C 39.6875 177.085938 39.6875 177.085938 39.683594 177.082031 Z M 39.683594 177.082031 " fill-opacity="1" fill-rule="nonzero"/><path fill="#ffffff" d="M 7.460938 125.519531 C 7.460938 125.824219 7.402344 126.113281 7.289062 126.394531 C 7.171875 126.675781 7.007812 126.921875 6.792969 127.136719 C 6.578125 127.351562 6.332031 127.515625 6.050781 127.632812 C 5.769531 127.746094 5.480469 127.804688 5.175781 127.804688 C 4.875 127.804688 4.582031 127.746094 4.300781 127.632812 C 4.023438 127.515625 3.777344 127.351562 3.5625 127.136719 C 3.347656 126.921875 3.183594 126.675781 3.066406 126.394531 C 2.949219 126.113281 2.890625 125.824219 2.890625 125.519531 C 2.890625 125.21875 2.949219 124.925781 3.066406 124.644531 C 3.183594 124.367188 3.347656 124.117188 3.5625 123.90625 C 3.777344 123.691406 4.023438 123.527344 4.300781 123.410156 C 4.582031 123.292969 4.875 123.234375 5.175781 123.234375 C 5.480469 123.234375 5.769531 123.292969 6.050781 123.410156 C 6.332031 123.527344 6.578125 123.691406 6.792969 123.90625 C 7.007812 124.117188 7.171875 124.367188 7.289062 124.644531 C 7.402344 124.925781 7.460938 125.21875 7.460938 125.519531 Z M 7.460938 125.519531 " fill-opacity="1" fill-rule="nonzero"/><path fill="#ffffff" d="M 31.574219 163.875 C 31.574219 164.207031 31.539062 164.539062 31.476562 164.863281 C 31.410156 165.191406 31.316406 165.507812 31.1875 165.8125 C 31.058594 166.121094 30.902344 166.414062 30.71875 166.691406 C 30.535156 166.964844 30.324219 167.222656 30.089844 167.457031 C 29.855469 167.691406 29.597656 167.902344 29.320312 168.089844 C 29.042969 168.273438 28.753906 168.429688 28.445312 168.554688 C 28.136719 168.683594 27.820312 168.78125 27.496094 168.84375 C 27.167969 168.910156 26.839844 168.941406 26.507812 168.941406 C 26.171875 168.941406 25.84375 168.910156 25.519531 168.84375 C 25.191406 168.78125 24.875 168.683594 24.566406 168.554688 C 24.261719 168.429688 23.96875 168.273438 23.691406 168.089844 C 23.414062 167.902344 23.160156 167.691406 22.921875 167.457031 C 22.6875 167.222656 22.476562 166.964844 22.292969 166.691406 C 22.109375 166.414062 21.953125 166.121094 21.824219 165.8125 C 21.699219 165.507812 21.601562 165.191406 21.535156 164.863281 C 21.472656 164.539062 21.4375 164.207031 21.441406 163.875 C 21.4375 163.542969 21.472656 163.214844 21.535156 162.886719 C 21.601562 162.558594 21.699219 162.242188 21.824219 161.9375 C 21.953125 161.628906 22.109375 161.335938 22.292969 161.058594 C 22.476562 160.785156 22.6875 160.527344 22.921875 160.292969 C 23.160156 160.058594 23.414062 159.847656 23.691406 159.664062 C 23.96875 159.476562 24.261719 159.320312 24.566406 159.195312 C 24.875 159.066406 25.191406 158.972656 25.519531 158.90625 C 25.84375 158.839844 26.171875 158.808594 26.507812 158.808594 C 26.839844 158.808594 27.167969 158.839844 27.496094 158.90625 C 27.820312 158.972656 28.136719 159.066406 28.445312 159.195312 C 28.753906 159.320312 29.042969 159.476562 29.320312 159.664062 C 29.597656 159.847656 29.855469 160.058594 30.089844 160.292969 C 30.324219 160.527344 30.535156 160.785156 30.71875 161.058594 C 30.902344 161.335938 31.058594 161.628906 31.1875 161.9375 C 31.316406 162.242188 31.410156 162.558594 31.476562 162.886719 C 31.539062 163.214844 31.574219 163.542969 31.574219 163.875 Z M 31.574219 163.875 " fill-opacity="1" fill-rule="nonzero"/><g clip-path="url(#e5a809f5d8)"><path fill="#ffffff" d="M 11.792969 214.882812 C 11.792969 215.25 11.757812 215.613281 11.6875 215.96875 C 11.617188 216.328125 11.511719 216.675781 11.371094 217.011719 C 11.230469 217.351562 11.058594 217.671875 10.855469 217.976562 C 10.652344 218.28125 10.421875 218.558594 10.164062 218.820312 C 9.90625 219.078125 9.625 219.308594 9.320312 219.511719 C 9.019531 219.714844 8.699219 219.886719 8.359375 220.023438 C 8.023438 220.164062 7.675781 220.269531 7.316406 220.339844 C 6.957031 220.414062 6.597656 220.449219 6.230469 220.449219 C 5.867188 220.449219 5.503906 220.414062 5.144531 220.339844 C 4.785156 220.269531 4.4375 220.164062 4.101562 220.023438 C 3.765625 219.886719 3.441406 219.714844 3.140625 219.511719 C 2.835938 219.308594 2.554688 219.078125 2.296875 218.820312 C 2.039062 218.558594 1.808594 218.28125 1.605469 217.976562 C 1.402344 217.671875 1.230469 217.351562 1.089844 217.011719 C 0.949219 216.675781 0.84375 216.328125 0.773438 215.96875 C 0.703125 215.613281 0.667969 215.25 0.667969 214.882812 C 0.667969 214.519531 0.703125 214.15625 0.773438 213.796875 C 0.84375 213.441406 0.949219 213.09375 1.089844 212.753906 C 1.230469 212.417969 1.402344 212.097656 1.605469 211.792969 C 1.808594 211.488281 2.039062 211.207031 2.296875 210.949219 C 2.554688 210.691406 2.835938 210.460938 3.140625 210.257812 C 3.441406 210.054688 3.765625 209.882812 4.101562 209.742188 C 4.4375 209.605469 4.785156 209.5 5.144531 209.425781 C 5.503906 209.355469 5.867188 209.320312 6.230469 209.320312 C 6.597656 209.320312 6.957031 209.355469 7.316406 209.425781 C 7.675781 209.5 8.023438 209.605469 8.359375 209.742188 C 8.699219 209.882812 9.019531 210.054688 9.320312 210.257812 C 9.625 210.460938 9.90625 210.691406 10.164062 210.949219 C 10.421875 211.207031 10.652344 211.488281 10.855469 211.792969 C 11.058594 212.097656 11.230469 212.417969 11.371094 212.753906 C 11.511719 213.09375 11.617188 213.441406 11.6875 213.796875 C 11.757812 214.15625 11.792969 214.519531 11.792969 214.882812 Z M 11.792969 214.882812 " fill-opacity="1" fill-rule="nonzero"/></g><path fill="#ffffff" d="M 186.109375 223.039062 C 186.109375 223.386719 186.042969 223.714844 185.910156 224.035156 C 185.78125 224.351562 185.59375 224.632812 185.347656 224.878906 C 185.105469 225.121094 184.824219 225.308594 184.507812 225.441406 C 184.1875 225.570312 183.855469 225.636719 183.511719 225.636719 C 183.167969 225.636719 182.835938 225.570312 182.519531 225.441406 C 182.199219 225.308594 181.921875 225.121094 181.675781 224.878906 C 181.433594 224.632812 181.246094 224.351562 181.113281 224.035156 C 180.980469 223.714844 180.917969 223.386719 180.917969 223.039062 C 180.917969 222.695312 180.980469 222.367188 181.113281 222.046875 C 181.246094 221.730469 181.433594 221.449219 181.675781 221.203125 C 181.921875 220.960938 182.199219 220.773438 182.519531 220.640625 C 182.835938 220.511719 183.167969 220.445312 183.511719 220.445312 C 183.855469 220.445312 184.1875 220.511719 184.507812 220.640625 C 184.824219 220.773438 185.105469 220.960938 185.347656 221.203125 C 185.59375 221.449219 185.78125 221.730469 185.910156 222.046875 C 186.042969 222.367188 186.109375 222.695312 186.109375 223.039062 Z M 186.109375 223.039062 " fill-opacity="1" fill-rule="nonzero"/><path fill="#ffffff" d="M 222.777344 169.300781 C 222.777344 169.570312 222.726562 169.832031 222.621094 170.082031 C 222.519531 170.332031 222.371094 170.550781 222.179688 170.742188 C 221.988281 170.933594 221.769531 171.082031 221.519531 171.183594 C 221.269531 171.289062 221.007812 171.339844 220.738281 171.339844 C 220.46875 171.339844 220.207031 171.289062 219.957031 171.183594 C 219.707031 171.082031 219.488281 170.933594 219.296875 170.742188 C 219.105469 170.550781 218.957031 170.332031 218.851562 170.082031 C 218.75 169.832031 218.699219 169.570312 218.699219 169.300781 C 218.699219 169.03125 218.75 168.769531 218.851562 168.519531 C 218.957031 168.269531 219.105469 168.050781 219.296875 167.859375 C 219.488281 167.667969 219.707031 167.519531 219.957031 167.414062 C 220.207031 167.3125 220.46875 167.261719 220.738281 167.261719 C 221.007812 167.261719 221.269531 167.3125 221.519531 167.414062 C 221.769531 167.519531 221.988281 167.667969 222.179688 167.859375 C 222.371094 168.050781 222.519531 168.269531 222.621094 168.519531 C 222.726562 168.769531 222.777344 169.03125 222.777344 169.300781 Z M 222.777344 169.300781 " fill-opacity="1" fill-rule="nonzero"/><path fill="#ffffff" d="M 230.933594 217 C 230.933594 217.402344 230.894531 217.800781 230.816406 218.195312 C 230.738281 218.589844 230.621094 218.972656 230.46875 219.34375 C 230.316406 219.714844 230.125 220.066406 229.902344 220.402344 C 229.679688 220.734375 229.425781 221.042969 229.140625 221.328125 C 228.859375 221.613281 228.546875 221.867188 228.214844 222.089844 C 227.878906 222.3125 227.527344 222.5 227.15625 222.65625 C 226.785156 222.808594 226.402344 222.925781 226.007812 223.003906 C 225.613281 223.082031 225.214844 223.121094 224.8125 223.121094 C 224.410156 223.121094 224.015625 223.082031 223.621094 223.003906 C 223.226562 222.925781 222.84375 222.808594 222.472656 222.65625 C 222.101562 222.5 221.746094 222.3125 221.414062 222.089844 C 221.078125 221.867188 220.769531 221.613281 220.484375 221.328125 C 220.203125 221.042969 219.949219 220.734375 219.726562 220.402344 C 219.5 220.066406 219.3125 219.714844 219.160156 219.34375 C 219.003906 218.972656 218.890625 218.589844 218.8125 218.195312 C 218.734375 217.800781 218.695312 217.402344 218.695312 217 C 218.695312 216.597656 218.734375 216.199219 218.8125 215.804688 C 218.890625 215.414062 219.003906 215.03125 219.160156 214.65625 C 219.3125 214.285156 219.5 213.933594 219.726562 213.601562 C 219.949219 213.265625 220.203125 212.957031 220.484375 212.671875 C 220.769531 212.386719 221.078125 212.132812 221.414062 211.910156 C 221.746094 211.6875 222.101562 211.5 222.472656 211.34375 C 222.84375 211.191406 223.226562 211.074219 223.621094 210.996094 C 224.015625 210.917969 224.410156 210.878906 224.8125 210.878906 C 225.214844 210.878906 225.613281 210.917969 226.007812 210.996094 C 226.402344 211.074219 226.785156 211.191406 227.15625 211.34375 C 227.527344 211.5 227.878906 211.6875 228.214844 211.910156 C 228.546875 212.132812 228.859375 212.386719 229.140625 212.671875 C 229.425781 212.957031 229.679688 213.265625 229.902344 213.601562 C 230.125 213.933594 230.316406 214.285156 230.46875 214.65625 C 230.621094 215.03125 230.738281 215.414062 230.816406 215.804688 C 230.894531 216.199219 230.933594 216.597656 230.933594 217 Z M 230.933594 217 " fill-opacity="1" fill-rule="nonzero"/><g clip-path="url(#a2e4786661)"><path fill="#ffffff" d="M 133.074219 229.792969 C 133.074219 230.15625 133.003906 230.503906 132.863281 230.835938 C 132.726562 231.171875 132.53125 231.464844 132.273438 231.722656 C 132.019531 231.976562 131.722656 232.175781 131.390625 232.3125 C 131.054688 232.453125 130.707031 232.519531 130.34375 232.519531 C 129.984375 232.519531 129.636719 232.453125 129.300781 232.3125 C 128.96875 232.175781 128.671875 231.976562 128.417969 231.722656 C 128.160156 231.464844 127.964844 231.171875 127.824219 230.835938 C 127.6875 230.503906 127.617188 230.15625 127.617188 229.792969 C 127.617188 229.433594 127.6875 229.085938 127.824219 228.75 C 127.964844 228.414062 128.160156 228.121094 128.417969 227.867188 C 128.671875 227.609375 128.96875 227.414062 129.300781 227.273438 C 129.636719 227.136719 129.984375 227.066406 130.34375 227.066406 C 130.707031 227.066406 131.054688 227.136719 131.390625 227.273438 C 131.722656 227.414062 132.019531 227.609375 132.273438 227.867188 C 132.53125 228.121094 132.726562 228.414062 132.863281 228.75 C 133.003906 229.085938 133.074219 229.433594 133.074219 229.792969 Z M 133.074219 229.792969 " fill-opacity="1" fill-rule="nonzero"/></g><path fill="#ffffff" d="M 94.242188 3.402344 C 94.242188 3.71875 94.179688 4.023438 94.058594 4.3125 C 93.941406 4.605469 93.769531 4.863281 93.546875 5.085938 C 93.320312 5.308594 93.066406 5.480469 92.773438 5.601562 C 92.484375 5.722656 92.179688 5.78125 91.863281 5.78125 C 91.546875 5.78125 91.246094 5.722656 90.953125 5.601562 C 90.664062 5.480469 90.40625 5.308594 90.183594 5.085938 C 89.960938 4.863281 89.789062 4.605469 89.667969 4.3125 C 89.546875 4.023438 89.488281 3.71875 89.488281 3.402344 C 89.488281 3.089844 89.546875 2.785156 89.667969 2.492188 C 89.789062 2.203125 89.960938 1.945312 90.183594 1.722656 C 90.40625 1.5 90.664062 1.328125 90.953125 1.207031 C 91.246094 1.085938 91.546875 1.027344 91.863281 1.027344 C 92.179688 1.027344 92.484375 1.085938 92.773438 1.207031 C 93.066406 1.328125 93.320312 1.5 93.546875 1.722656 C 93.769531 1.945312 93.941406 2.203125 94.058594 2.492188 C 94.179688 2.785156 94.242188 3.089844 94.242188 3.402344 Z M 94.242188 3.402344 " fill-opacity="1" fill-rule="nonzero"/><path fill="#ffffff" d="M 147.140625 47.175781 C 147.140625 47.542969 147.070312 47.894531 146.929688 48.234375 C 146.789062 48.574219 146.585938 48.875 146.328125 49.132812 C 146.066406 49.394531 145.769531 49.59375 145.429688 49.734375 C 145.089844 49.875 144.738281 49.945312 144.371094 49.945312 C 144.003906 49.945312 143.648438 49.875 143.308594 49.734375 C 142.96875 49.59375 142.671875 49.394531 142.410156 49.132812 C 142.152344 48.875 141.953125 48.574219 141.8125 48.234375 C 141.671875 47.894531 141.601562 47.542969 141.601562 47.175781 C 141.601562 46.808594 141.671875 46.453125 141.8125 46.117188 C 141.953125 45.777344 142.152344 45.476562 142.410156 45.21875 C 142.671875 44.957031 142.96875 44.757812 143.308594 44.617188 C 143.648438 44.476562 144.003906 44.40625 144.371094 44.40625 C 144.738281 44.40625 145.089844 44.476562 145.429688 44.617188 C 145.769531 44.757812 146.066406 44.957031 146.328125 45.21875 C 146.585938 45.476562 146.789062 45.777344 146.929688 46.117188 C 147.070312 46.453125 147.140625 46.808594 147.140625 47.175781 Z M 147.140625 47.175781 " fill-opacity="1" fill-rule="nonzero"/><path fill="#ffffff" d="M 192.972656 88.027344 C 192.972656 88.160156 192.945312 88.289062 192.894531 88.414062 C 192.84375 88.539062 192.769531 88.652344 192.671875 88.746094 C 192.578125 88.84375 192.46875 88.917969 192.34375 88.96875 C 192.21875 89.019531 192.085938 89.046875 191.953125 89.046875 C 191.816406 89.046875 191.6875 89.019531 191.5625 88.96875 C 191.4375 88.917969 191.324219 88.84375 191.230469 88.746094 C 191.132812 88.652344 191.0625 88.539062 191.007812 88.414062 C 190.957031 88.289062 190.929688 88.160156 190.929688 88.027344 C 190.929688 87.890625 190.957031 87.761719 191.007812 87.636719 C 191.0625 87.511719 191.132812 87.398438 191.230469 87.304688 C 191.324219 87.207031 191.4375 87.136719 191.5625 87.082031 C 191.6875 87.03125 191.816406 87.003906 191.953125 87.003906 C 192.085938 87.003906 192.21875 87.03125 192.34375 87.082031 C 192.46875 87.136719 192.578125 87.207031 192.671875 87.304688 C 192.769531 87.398438 192.84375 87.511719 192.894531 87.636719 C 192.945312 87.761719 192.972656 87.890625 192.972656 88.027344 Z M 192.972656 88.027344 " fill-opacity="1" fill-rule="nonzero"/><path fill="#ffffff" d="M 94.640625 31.097656 C 94.640625 31.433594 94.609375 31.765625 94.542969 32.09375 C 94.480469 32.421875 94.382812 32.738281 94.253906 33.046875 C 94.125 33.359375 93.96875 33.652344 93.78125 33.929688 C 93.597656 34.207031 93.386719 34.464844 93.148438 34.703125 C 92.914062 34.9375 92.65625 35.148438 92.378906 35.335938 C 92.097656 35.523438 91.804688 35.679688 91.496094 35.804688 C 91.1875 35.933594 90.867188 36.03125 90.539062 36.097656 C 90.210938 36.160156 89.878906 36.195312 89.546875 36.195312 C 89.210938 36.195312 88.878906 36.160156 88.550781 36.097656 C 88.222656 36.03125 87.90625 35.933594 87.59375 35.804688 C 87.285156 35.679688 86.992188 35.523438 86.714844 35.335938 C 86.4375 35.148438 86.179688 34.9375 85.941406 34.703125 C 85.707031 34.464844 85.496094 34.207031 85.308594 33.929688 C 85.121094 33.652344 84.964844 33.359375 84.835938 33.046875 C 84.710938 32.738281 84.613281 32.421875 84.546875 32.09375 C 84.480469 31.765625 84.449219 31.433594 84.449219 31.097656 C 84.449219 30.761719 84.480469 30.433594 84.546875 30.105469 C 84.613281 29.777344 84.710938 29.457031 84.835938 29.148438 C 84.964844 28.839844 85.121094 28.546875 85.308594 28.265625 C 85.496094 27.988281 85.707031 27.730469 85.941406 27.496094 C 86.179688 27.257812 86.4375 27.046875 86.714844 26.859375 C 86.992188 26.675781 87.285156 26.519531 87.59375 26.390625 C 87.90625 26.261719 88.222656 26.164062 88.550781 26.101562 C 88.878906 26.035156 89.210938 26 89.546875 26 C 89.878906 26 90.210938 26.035156 90.539062 26.101562 C 90.867188 26.164062 91.1875 26.261719 91.496094 26.390625 C 91.804688 26.519531 92.097656 26.675781 92.378906 26.859375 C 92.65625 27.046875 92.914062 27.257812 93.148438 27.496094 C 93.386719 27.730469 93.597656 27.988281 93.78125 28.265625 C 93.96875 28.546875 94.125 28.839844 94.253906 29.148438 C 94.382812 29.457031 94.480469 29.777344 94.542969 30.105469 C 94.609375 30.433594 94.640625 30.761719 94.640625 31.097656 Z M 94.640625 31.097656 " fill-opacity="1" fill-rule="nonzero"/><path fill="#ffffff" d="M 133.234375 63.421875 C 133.234375 63.800781 133.160156 64.164062 133.015625 64.515625 C 132.871094 64.863281 132.664062 65.175781 132.394531 65.441406 C 132.128906 65.710938 131.820312 65.917969 131.46875 66.0625 C 131.117188 66.207031 130.753906 66.277344 130.375 66.277344 C 129.996094 66.277344 129.632812 66.207031 129.28125 66.0625 C 128.929688 65.917969 128.621094 65.710938 128.355469 65.441406 C 128.085938 65.175781 127.878906 64.863281 127.734375 64.515625 C 127.589844 64.164062 127.515625 63.800781 127.515625 63.421875 C 127.515625 63.042969 127.589844 62.675781 127.734375 62.328125 C 127.878906 61.976562 128.085938 61.667969 128.355469 61.398438 C 128.621094 61.132812 128.929688 60.925781 129.28125 60.78125 C 129.632812 60.636719 129.996094 60.5625 130.375 60.5625 C 130.753906 60.5625 131.117188 60.636719 131.46875 60.78125 C 131.820312 60.925781 132.128906 61.132812 132.394531 61.398438 C 132.664062 61.667969 132.871094 61.976562 133.015625 62.328125 C 133.160156 62.675781 133.234375 63.042969 133.234375 63.421875 Z M 133.234375 63.421875 " fill-opacity="1" fill-rule="nonzero"/></g></g></g><g mask="url(#7ab36009bb)"><g transform="matrix(1, 0, 0, 1, 138, 157)"><g clip-path="url(#ddd916ea84)"><g clip-path="url(#19a664c65e)"><path fill="#ffffff" d="M 0.511719 0.757812 L 0.511719 47.375 C 0.511719 47.707031 0.523438 48.03125 0.550781 48.351562 C 0.832031 51.503906 2.441406 54.136719 4.714844 55.855469 C 7.453125 56.78125 10.585938 56.621094 13.429688 54.976562 L 36.390625 41.726562 L 47.320312 35.414062 C 15.765625 49.171875 3.203125 22.671875 0.511719 0.757812 Z M 0.511719 0.757812 " fill-opacity="0.32" fill-rule="nonzero"/></g></g></g></g><path fill="#ffffff" d="M 240.878906 191.980469 L 211.539062 208.925781 L 185.820312 223.773438 L 153.152344 242.632812 C 149.101562 244.976562 144.644531 245.199219 140.757812 243.878906 C 137.519531 241.433594 135.222656 237.691406 134.824219 233.203125 C 134.789062 232.746094 134.765625 232.28125 134.765625 231.8125 L 134.765625 224.441406 C 140.222656 228.402344 147.769531 231.613281 156.386719 228.953125 C 173.792969 223.582031 239.847656 192.46875 240.878906 191.980469 Z M 240.878906 191.980469 " fill-opacity="0.32" fill-rule="nonzero"/></svg>